<svg width="68" height="16" xmlns="http://www.w3.org/2000/svg" xmlns:xlink="http://www.w3.org/1999/xlink" xml:space="preserve" overflow="hidden"><g transform="translate(-724 -420)"><g><g><g><g><path d="M179.63 135.136 179.445 132.915 178.538 132.915C177.09 132.915 176.337 131.754 176.337 130.642L176.337 125.626 173.77 125.626 173.77 135.136 176.201 135.136 176.257 133.949C176.767 134.763 177.659 135.136 178.76 135.136L179.63 135.136ZM161.836 125.626 159.267 125.626 159.267 130.653C159.267 131.706 159.177 133.031 157.696 133.031 156.27 133.031 155.701 132.002 155.701 130.804L155.701 125.626 153.133 125.626 153.133 135.136 155.514 135.136 155.569 133.92C156.079 134.734 157.029 135.368 158.431 135.368 161.019 135.368 161.836 133.52 161.836 131.597L161.836 125.626ZM152.013 127.847 151.834 125.683C151.218 125.518 150.671 125.459 150.009 125.459 147.589 125.459 146.887 126.569 146.887 128.799L146.887 137.818 149.455 137.818 149.455 135.136 152.011 135.136 151.834 132.915 149.455 132.915 149.455 128.993C149.455 128.097 149.701 127.614 150.619 127.614 151.018 127.614 151.462 127.662 152.013 127.847M146.043 135.136 145.844 132.915 145.146 132.915C143.701 132.915 142.983 131.756 142.983 130.642L142.983 125.626 140.414 125.626 140.414 135.136 142.846 135.136 142.897 133.949C143.409 134.763 144.302 135.136 145.404 135.136L146.043 135.136ZM128.822 126.679C127.08 125.747 125.34 125.21 123.041 125.276 118.78 125.407 115.706 128.053 115.706 132.522 115.706 136.972 118.81 139.815 123.043 139.882 125.189 139.914 127.11 139.37 128.611 138.045L126.803 136.216C125.874 137.008 124.507 137.471 122.874 137.397 120.21 137.273 118.604 135.337 118.569 132.674 118.534 129.79 120.303 127.802 123.067 127.73 124.368 127.697 125.3 127.872 126.107 128.234L126.107 131.182 123.233 131.182 123.427 133.6 128.822 133.6 128.822 126.679ZM172.623 129.477 165.581 129.477C165.782 128.262 166.737 127.531 167.927 127.498 169.083 127.466 169.73 127.816 170.576 128.672L172.252 127.394C171.061 125.927 169.632 125.393 168.004 125.393 165.14 125.393 162.994 127.396 162.994 130.381 162.994 133.363 165.129 135.368 167.896 135.368 170.947 135.368 172.623 133.52 172.623 130.24L172.623 129.477ZM170.05 131.465C169.971 132.667 169.071 133.426 167.832 133.378 166.584 133.331 165.753 132.518 165.581 131.465L170.05 131.465ZM138.797 131.853 138.797 125.626 136.532 125.626 136.476 126.564C135.781 125.703 134.653 125.393 133.492 125.393 131.743 125.393 130.091 126.256 130.056 128.264 130.004 131.421 133.609 131.645 135.873 131.645L136.326 131.645 136.326 131.77C136.326 132.814 135.635 133.378 134.334 133.378 133.4 133.378 132.479 133.003 131.797 132.364L130.315 133.87C131.661 134.961 133.061 135.368 134.552 135.368 137.498 135.368 138.797 134.007 138.797 131.853M136.326 129.773 135.968 129.773C134.752 129.771 132.616 129.711 132.624 128.439 132.636 126.648 136.326 127.217 136.326 129.377L136.326 129.773ZM177.626 126.732C177.626 127.337 178.083 127.794 178.669 127.794 179.247 127.794 179.705 127.337 179.705 126.732 179.705 126.116 179.247 125.661 178.669 125.661 178.083 125.661 177.626 126.116 177.626 126.732M178.669 125.449C179.366 125.449 179.961 125.99 179.961 126.732 179.961 127.466 179.366 128.007 178.669 128.007 177.965 128.007 177.369 127.466 177.369 126.732 177.369 125.99 177.965 125.449 178.669 125.449M178.398 126.63 178.655 126.63 179.044 125.99 179.295 125.99 178.875 126.64C179.092 126.666 179.258 126.783 179.258 127.047 179.258 127.337 179.085 127.466 178.736 127.466L178.175 127.466 178.175 125.99 178.398 125.99 178.398 126.63ZM178.398 126.82 178.398 127.276 178.702 127.276C178.858 127.276 179.024 127.242 179.024 127.06 179.024 126.833 178.855 126.82 178.666 126.82L178.398 126.82Z" fill="#006699" fill-rule="nonzero" fill-opacity="1" transform="matrix(1.03627 0 0 -1 604.305 560.077)"/></g></g></g></g></g></svg>