<svg xmlns="http://www.w3.org/2000/svg" xml:space="preserve" id="Layer_1" x="0" y="0" style="enable-background:new 0 0 1054.7 323.2" version="1.1" viewBox="0 0 1054.7 323.2"><style>.st0{fill:#049}.st1{fill:#0068ef}</style><switch><g><path id="Layer0_0_FILL" d="M992.1 264.6c1.7-1 4.3-1.6 7.7-1.5 5-.1 9.9 1.2 14.2 3.7l4.4-8.8c-2.6-1.5-5.4-2.5-8.3-3-3.3-.8-6.7-1.2-10.2-1.2-6.7 0-11.9 1.4-15.8 4.2-3.7 2.5-6 6.7-5.8 11.2 0 3.6.9 6.4 2.8 8.4 1.8 2 4.1 3.5 6.7 4.2 3.3 1 6.6 1.7 10 2.1 2.9.4 5.7 1 8.4 1.9 1.6.5 2.7 2 2.7 3.6 0 3.6-3.5 5.4-10.4 5.4-3.1 0-6.2-.5-9.2-1.3-2.8-.8-5.5-2-8-3.6l-4.4 8.8c2.8 1.8 5.9 3.2 9.2 4 3.8 1 7.8 1.6 11.8 1.5 6.9 0 12.3-1.4 16.3-4.1 3.8-2.4 6.1-6.6 6-11.1 0-3.5-.9-6.2-2.7-8.1-1.8-1.9-4-3.3-6.5-4-3.2-1-6.4-1.7-9.8-2.1-3-.5-5.9-1.2-8.8-2.1-1.7-.6-2.8-2.2-2.8-4 0-1.8 1-3.4 2.5-4.1m-54.8-9.1c-2.8 1.1-5.3 2.9-7.2 5.1v-6.4h-11v49.4h11.6v-24.9c0-4.8 1.2-8.5 3.7-11s5.8-3.8 10-3.9c3.8 0 6.7 1.1 8.7 3.3 2 2.2 3 5.4 3 9.8v26.8h11.6v-28.3c0-7.1-1.9-12.5-5.7-16.1s-8.8-5.5-15-5.5c-3.4-.1-6.7.5-9.7 1.7M855.4 279c-.1 4.6 1.1 9.1 3.4 13.1 2.2 3.8 5.4 7 9.3 9 4.2 2.2 8.8 3.3 13.5 3.2 4.7.1 9.4-1 13.7-3.2 3.9-2.1 7.2-5.2 9.3-9 4.5-8.1 4.5-18 0-26.1-2.2-3.8-5.5-6.9-9.3-9-4.2-2.2-8.9-3.3-13.6-3.2-4.7-.1-9.3 1.1-13.5 3.2-3.9 2.1-7.1 5.2-9.3 9-2.4 3.9-3.6 8.4-3.5 13m15.8-11.2c2.7-2.8 6.5-4.4 10.5-4.2 3.9-.1 7.8 1.4 10.6 4.2 2.8 3 4.3 7.1 4.2 11.2 0 4.7-1.4 8.4-4.2 11.2-2.8 2.8-6.6 4.4-10.5 4.2-3.9.1-7.7-1.4-10.5-4.2-2.8-2.8-4.2-6.6-4.2-11.2-.2-4.2 1.3-8.2 4.1-11.2m-76-13.2h-8.1v9.2h8.1v23.8c0 5.4 1.5 9.6 4.5 12.4 3 2.8 7.2 4.2 12.6 4.2 2.1 0 4.1-.3 6.1-.9 1.8-.5 3.5-1.3 5-2.5l-3.2-8.2c-1.9 1.4-4.2 2.1-6.5 2-1.9.1-3.7-.6-5-1.9-1.3-1.5-1.9-3.5-1.8-5.5v-23.5H820v-9.2h-13.2v-11.2h-11.5v11.3m49.1-.3h-11.6v49.4h11.5l.1-49.4m-.5-20.1c-1.5-1.2-3.4-1.9-5.3-1.9-1.9-.1-3.8.6-5.2 2-1.4 1.3-2.2 3.1-2.2 5s.8 3.7 2.2 4.9c3 2.7 7.6 2.7 10.6-.1 1.3-1.4 2.1-3.2 2-5.1 0-1.9-.7-3.7-2.1-4.8m-128.3.9h-11.5v68.6h11.5v-68.6m62.9 19.2H767v25c0 4.8-1.2 8.5-3.7 11-2.6 2.6-6.2 4-9.8 3.8-3.7 0-6.6-1.1-8.6-3.2s-3-5.5-3-10v-26.6h-11.6v28.2c0 7.2 1.9 12.6 5.7 16.2 3.8 3.6 9 5.5 15.6 5.5 3.1 0 6.1-.6 8.9-1.8 2.7-1.1 5.1-2.9 7-5.1v6.2h11v-49.2m-98.2 2.7c-4.2-2.2-8.9-3.3-13.6-3.2-4.7-.1-9.3 1.1-13.5 3.2-3.9 2.1-7.1 5.2-9.3 9-4.5 8.1-4.5 18 0 26.1 2.2 3.8 5.4 7 9.3 9 4.2 2.2 8.8 3.3 13.5 3.2 4.7.1 9.4-1 13.7-3.2 3.9-2.1 7.2-5.2 9.3-9 4.5-8.1 4.5-18 0-26.1-2.2-3.9-5.5-7-9.4-9m-13.6 6.5c3.9-.1 7.8 1.4 10.5 4.2 2.8 3 4.3 7.1 4.2 11.2 0 4.7-1.4 8.4-4.2 11.2-2.8 2.8-6.6 4.4-10.5 4.2-3.9.1-7.7-1.4-10.5-4.2-2.8-2.8-4.2-6.6-4.2-11.2-.2-4.1 1.3-8.2 4.2-11.2 2.8-2.8 6.6-4.3 10.5-4.2m-52.2-9.8c-6.7 0-12 1.4-15.8 4.2-3.7 2.5-6 6.7-5.8 11.2 0 3.6.9 6.4 2.8 8.4 1.8 2 4.1 3.5 6.7 4.2 3.3 1 6.6 1.7 10 2.1 2.9.4 5.7 1 8.5 1.9 1.6.5 2.7 2 2.7 3.6 0 3.6-3.5 5.4-10.4 5.4-3.1 0-6.2-.5-9.2-1.3-2.8-.8-5.5-2-8-3.6l-4.4 8.8c2.8 1.8 5.9 3.2 9.2 4 3.8 1 7.8 1.6 11.8 1.5 6.9 0 12.3-1.4 16.3-4.1 3.8-2.4 6.1-6.6 6-11.1 0-3.5-.9-6.2-2.7-8.1-1.8-1.9-4-3.3-6.5-4-3.2-1-6.5-1.7-9.8-2.1-3-.5-5.9-1.2-8.8-2.1-1.7-.6-2.8-2.2-2.8-4 .1-1.7 1.1-3.3 2.7-4 1.7-1 4.3-1.5 7.7-1.5 5-.1 9.9 1.2 14.2 3.7l4.5-8.8c-2.6-1.5-5.4-2.5-8.3-3-3.7-.9-7.1-1.3-10.6-1.3m-53.1 0c-8.4 0-14.2 2.6-17.5 7.8v-7.2h-11v49.4h11.5v-23.9c0-4.9 1.3-8.7 3.8-11.3 2.5-2.6 6-3.9 10.5-4l2.7.3v-11.1m-42.8 12.2c-2-3.8-5.1-6.9-8.8-8.9-3.9-2.2-8.4-3.3-12.9-3.2-4.6-.1-9.1 1-13.2 3.2-3.8 2.1-7 5.2-9.1 9-2.2 4-3.4 8.5-3.3 13-.1 4.6 1.1 9.1 3.4 13.1 2.2 3.9 5.6 7 9.6 9 8.1 3.8 17.4 4.2 25.8 1.1 3.3-1.3 6.2-3.3 8.4-6l-6.2-7.1c-3.5 3.6-8.4 5.6-13.4 5.4-3.8.1-7.5-1-10.7-3.1-2.9-2.1-4.8-5.2-5.3-8.7h38.7l.2-3.4c.1-4.7-1-9.3-3.2-13.4m-31.2.4c2.6-2.2 6-3.4 9.4-3.2 3.4-.1 6.8 1.1 9.4 3.3 2.5 2.2 4.2 5.3 4.5 8.7h-28c.5-3.5 2.2-6.6 4.7-8.8m-32.4-7c-3.8-3.7-8.8-5.5-15-5.5-3.3 0-6.7.6-9.8 1.8-2.8 1.1-5.3 2.9-7.2 5.1v-6.4h-11v49.4h11.5v-25c0-4.8 1.2-8.5 3.7-11s5.8-3.8 10-3.9c3.8 0 6.7 1.1 8.7 3.3 2 2.2 3 5.4 3 9.8v26.8h11.5v-28.3c.3-7.1-1.6-12.5-5.4-16.1m-88.7 4.6h8.1v23.8c0 5.4 1.5 9.6 4.5 12.4s7.2 4.2 12.6 4.2c2.1 0 4.1-.3 6.1-.9 1.8-.5 3.5-1.3 5-2.5l-3.2-8.3c-1.9 1.4-4.2 2.1-6.5 2-1.9.1-3.7-.6-5-1.9-1.3-1.5-1.9-3.5-1.8-5.5v-23.5h13.2v-9.2H386v-11.2h-11.5v11.2h-8.1l-.1 9.4m-3.6-10.2c-8.4 0-14.2 2.6-17.5 7.8v-7.2h-11v49.4h11.5v-23.9c0-4.9 1.3-8.7 3.8-11.3 2.5-2.6 6-3.9 10.5-4l2.7.3v-11.1m-75.2 11c2.6-.9 5.4-1.3 8.1-1.3 4.1 0 7.1.9 9.2 2.8 2.1 1.9 3.1 4.5 3.1 8v.7h-12.8c-7.1 0-12.3 1.3-15.5 4-3.3 2.6-5.1 6.5-5 10.7 0 2.7.7 5.4 2.2 7.6 1.6 2.3 3.9 4.1 6.5 5.2 6.1 2.5 13 2.5 19.1.1 2.5-1 4.6-2.7 6-4.9v6h10.9v-28.9c0-7-1.9-12.2-5.8-15.8s-9.4-5.2-16.7-5.2c-3.9 0-7.8.5-11.5 1.6-3.4.9-6.5 2.5-9.3 4.5l4.5 8.5c2.1-1.7 4.5-2.9 7-3.6M286 289c0-4.3 3.3-6.5 10-6.5h12v5.7c-.8 2.4-2.5 4.4-4.8 5.7-2.4 1.4-5 2.1-7.8 2-2.5.1-4.9-.5-7-1.9-1.6-1.1-2.5-3-2.4-5m-31-32.1c-3.9-2.2-8.4-3.3-12.9-3.2-3.2 0-6.4.6-9.3 1.8-2.7 1.1-5.2 2.9-7.1 5.2v-6.5h-11v67.3h11.5v-23.9c3.9 4.4 9.1 6.7 15.8 6.6 4.5.1 8.9-1 12.9-3.1 3.8-2.1 6.8-5.1 8.9-8.9 2.2-4.1 3.3-8.7 3.2-13.3.1-4.6-1-9.2-3.2-13.2-1.9-3.7-5-6.8-8.8-8.8m-14.2 6.6c3.9-.1 7.8 1.4 10.5 4.2 2.8 3 4.3 7.1 4.1 11.2 0 4.7-1.4 8.4-4.1 11.2-2.7 2.8-6.6 4.4-10.5 4.2-2.6 0-5.2-.6-7.5-1.9-2.2-1.3-4.1-3.1-5.3-5.4-2.6-5.1-2.6-11.1 0-16.2 1.2-2.3 3.1-4.2 5.3-5.5 2.3-1.2 4.9-1.8 7.5-1.8z" class="st0"/><path id="Symbol_1_0_Layer0_0_FILL" d="M37.2 75.1V61.7H0v189.9h41.6v-58c13.1 8 24.8 12 35.3 12 21.9 0 38.1-8.8 48.5-26.5 8.4-13.4 12.7-29.4 12.7-47.9 0-23.2-5.9-41.3-17.7-54.3C109.5 64.3 95 58 76.9 58c-15.1 0-27.1 4-36 12l-3.7 5.1M70 87.6l5.6.7c15.2 3.8 22.8 18.1 22.8 42.9 0 12.2-2.3 22.3-6.9 30.3-5.5 9.2-13.1 13.9-22.8 13.9-7.1 0-13.4-2.8-18.8-8.2-6.7-7.6-10.1-19.1-10.1-34.7 0-14.3 2.9-25.5 8.8-33.5 5.8-7.6 13-11.4 21.4-11.4m186-26.4v140.5h41V61.2h-41m-59.3 14.4V61.2h-40.3v140.5H198v-78.8c0-8.4 1.9-14.2 5.6-17.6 2.9-2.6 9.7-4.9 20.2-6.9l13.9-2V59.9c-16 1.2-29.6 6.5-41 15.7m102.1-49.7c0-5.9-2.2-11.5-6.3-15.7-4.4-4.2-10.3-6.5-16.4-6.4-5.9 0-11.5 2.3-15.7 6.4-4 4.2-6.3 9.9-6.3 15.7-.1 6.1 2.2 11.9 6.3 16.4 4.2 4 9.9 6.3 15.7 6.3 6.1.1 11.9-2.2 16.4-6.3 4.2-4.5 6.4-10.4 6.3-16.4m135.6 50.4c-13.1-12.2-29-18.3-47.9-18.3-22.7 0-40.6 7.6-53.6 22.7-11.8 13.9-17.7 31.7-17.7 53.6 0 26 8.4 45.8 25.2 59.3 13.1 10.1 28.2 15.1 45.4 15.1 14.6 0 28.9-4.3 40.9-12.5l6.4-5.7c-8.8-7.8-15-18.2-17.7-29.6h-1.2L411 166c-5.4 6.1-13.3 9.6-21.5 9.5-10.1 0-18-4.6-23.9-13.9-5.1-8-7.6-17.5-7.6-28.4 0-10.5 2.3-19.7 6.9-27.7 5.4-10.1 13.2-15.2 23.3-15.2 6.3 0 11.6 1.5 15.7 4.4 4.4 3.5 8 7.8 10.7 12.7l1.3.7c3.7-12 9.9-22.9 18.5-31.8M597.8 0v201.7h42.8V0h-42.8m-19.6 167.1-31.5-15.7c-8 16.4-20 24.5-36 24.5-10.5 0-18.7-3.6-24.5-10.7-5.1-6.7-7.6-15-7.6-24.7h100.9c0-28.1-6.5-49.3-19.6-63.6-12.6-13.4-29.7-20.1-51.1-20.1-25.6 0-44.7 8.8-57.3 26.4-10.6 13.9-15.8 31.1-15.8 51.7 0 23.1 6.8 41.2 20.2 54.3 13 13 30.2 19.5 51.7 19.5 20.6 0 38.4-6.7 53.5-20.1 6.4-6.6 12.1-13.8 17.1-21.5m-90.8-71.2c5.1-6.1 12.8-9.6 20.8-9.5 8.4 0 15.4 2.7 20.8 8.1 4.3 4.6 6.8 11.4 7.6 20.2h-58c2.9-9.1 5.8-15.4 8.8-18.8m221.3-34.6h-41.6v140.5h41.6V61.3m-3.2-19c4.2-4.4 6.5-10.3 6.4-16.4.2-12-9.4-22-21.5-22.1h-.7c-5.9-.2-11.6 2.2-15.7 6.4-4.6 4.6-6.9 9.9-6.9 15.7-.1 6.1 2.5 12.1 6.9 16.4 4.2 4.2 9.9 6.4 15.7 6.3 5.9-.1 11.6-2.3 15.8-6.3m158.3 63.6c0-11.3-1.2-19.9-3.7-25.8-2.5-7.1-7.7-13-14.5-16.4-7.8-3.9-16.5-5.8-25.2-5.7-8.9 0-17.7 1.7-25.9 5.1-5.2 3-10 6.8-13.9 11.3V61.7h-42.2v140H780v-75.6c0-11.8.8-19.8 2.5-24 3.4-7.1 9.9-10.7 19.6-10.7 9.7 0 16 3.6 18.9 10.7 1.2 3.8 1.9 10.8 1.9 20.8v78.8h40.9v-95.8m142.6-26.7c-.1-.1-.1-.1-.1-.2l-1.9-2.1c-4-4.2-8.5-7.8-13.4-10.8-10.5-6.2-23.1-9.4-37.7-9.4-25.2 0-44.4 8.8-57.5 26.4-10 13.9-15.1 31.1-15.1 51.7 0 23.1 6.5 41.2 19.5 54.3 12.5 12.4 28.8 18.9 48.9 19.5h2.9c14.7 0 27.7-3.1 39-9.4 5.3-3 10.2-6.6 14.6-10.8.2-.2.5-.5.8-.7 4.5-4.3 9.9-11.3 16.3-20.8l-31.6-15.7c0 .1 0 .2-.1.2-7.9 16.2-19.9 24.3-35.8 24.3-2 0-4-.1-6-.4-7.3-1-13.9-4.6-18.6-10.2-5-6.7-7.5-15-7.5-24.7h101.4c-1.1-27.2-7.2-47.6-18.1-61.2m-74.5 16.7c4.3-5.3 10.5-8.6 17.3-9.2 1.2-.1 2.3-.2 3.5-.2 8.8 0 15.7 2.7 20.8 8.1 4.2 4.6 6.7 11.4 7.6 20.2h-57.4c1.6-8.4 4.4-14.7 8.2-18.9z" class="st1"/><path id="Symbol_1_0_Layer0_1_FILL" d="M1054.7 48.3c0-5.3-2.1-10.3-5.9-13.9-3.6-3.9-8.6-6-13.9-5.9-10.9.2-19.6 8.9-19.8 19.8-.2 5.3 2 10.4 5.9 13.9 3.6 3.8 8.7 5.9 13.9 5.9 10.9-.2 19.6-8.9 19.8-19.8m-3.7 0c.2 4.4-1.5 8.7-4.6 11.9-2.9 3.2-7.1 5.1-11.4 5-9.1 0-16.5-7.4-16.4-16.5v-.3c-.1-4.3 1.6-8.4 4.6-11.3 3.1-3.3 7.3-5.1 11.8-5.1 4.4-.1 8.5 1.8 11.4 5.1 3 2.8 4.6 6.9 4.6 11.2m-12.7 1.7c3.6-.5 5.5-2.8 5.4-6.8 0-4.2-2.5-6.3-7.6-6.3h-8.4v23.2h3.3V50h3.4l6.3 10.2h3.8l-6.2-10.2m2.1-6.8c0 2.6-1.8 3.8-5.4 3.8h-3.8v-7.1h4.3c3.2 0 4.9 1.1 4.9 3.3z" class="st1"/><g id="Layer0_0_MEMBER_1_FILL"><path d="M152.4 271.9c-.5-.6-1.4-.7-2-.2l-6.7 6.7c-.6.5-.7 1.5-.1 2.1l.1.1 20.6 20.5c2.3 2.2 2.3 5.8.1 8.1l-.1.1c-1.1 1.1-2.6 1.7-4.1 1.7-1.6.1-3.1-.6-4.1-1.7l-3.8-3.8c-.6-.5-1.4-.5-2 0l-6.2 6.2c-.7.6-.9 1.6-.4 2.4l3.2 3.3c3.4 3.5 8.2 5.6 13.1 5.6 9.8.2 17.9-7.5 18.1-17.3v-.9c0-4.9-2-9.6-5.5-13l-20.2-19.9m-43.8-36.4c-4.9-.2-9.6 1.7-12.9 5.2-3.5 3.4-5.3 8.1-5.1 12.9 0 4.9 2 9.7 5.6 13.1l20 20c.5.5 1.4.6 2 .2l6.7-6.6c.7-.6.7-1.3-.1-2.2l-20.6-20.5c-1.1-1.1-1.7-2.6-1.7-4.1 0-1.6.6-3.1 1.7-4.1 1.1-1.1 2.6-1.7 4.1-1.7 1.5 0 3 .6 4.1 1.7l3.9 3.9c.6.5 1.4.5 2 0l6.2-6.2c.9-.9 1.1-1.7.4-2.5l-3.2-3.2c-3.5-3.9-8.2-5.9-13.1-5.9z" class="st0"/><path d="m99.8 288.7-3.3 3.2c-3.5 3.4-5.5 8.2-5.6 13.1-.2 4.9 1.7 9.6 5.1 13h.1c3.4 3.5 8.1 5.4 12.9 5.2 4.9 0 9.7-2.1 13.1-5.6l19.9-20c.8-.7.9-1.4.2-2l-6.7-6.7c-.7-.5-1.6-.5-2.2 0l-20.5 20.5c-1.1 1.1-2.6 1.7-4.1 1.8-1.6 0-3.1-.6-4.1-1.8-1.1-1.1-1.7-2.6-1.7-4.1 0-1.6.6-3.1 1.7-4.1l3.9-3.9c.5-.6.5-1.5-.1-2l-6.2-6.2c-.9-.8-1.7-1-2.4-.4m27.4-27.5c-.6.5-.7 1.4-.2 2l6.6 6.8c.7.5 1.6.5 2.2-.1l20.6-20.5c2.2-2.3 5.9-2.3 8.2-.1l.1.1c2.3 2.2 2.3 5.8.1 8.1l-.1.1-3.8 3.9c-.5.5-.6 1.3-.1 1.9l.1.1 6.2 6.2c.6.7 1.6.9 2.5.5l3.2-3.3c3.6-3.4 5.6-8.2 5.6-13.1.2-9.8-7.6-17.9-17.4-18.1h-.7c-4.9 0-9.7 2-13.1 5.6l-20 19.9z" style="fill:#0168ee"/></g></g></switch></svg>